<svg width="24" height="25" viewBox="0 0 24 25" fill="none" xmlns="http://www.w3.org/2000/svg">
<path fill-rule="evenodd" clip-rule="evenodd" d="M3.33758 5.66899C0.565535 8.10633 0 8.60358 0 14.6413C0 25 2.45233 25 12 25C21.5477 25 24 25 24 14.6413C24 8.60282 23.4352 8.1062 20.6626 5.66806C20.2032 5.26417 19.6833 4.80697 19.0953 4.2625C18.8124 4.03494 18.5043 3.77558 18.1766 3.49973C16.3893 1.99512 14.0193 0 11.9649 0C9.9388 0 7.64598 1.94817 5.89041 3.43985C5.5385 3.73886 5.20816 4.01954 4.9059 4.2625C4.31749 4.80739 3.7972 5.26486 3.33758 5.66899ZM7.36057 17.6693C7.36057 17.117 7.80828 16.6693 8.36057 16.6693H15.6399C16.1922 16.6693 16.6399 17.117 16.6399 17.6693C16.6399 18.2215 16.1922 18.6693 15.6399 18.6693H8.36057C7.80828 18.6693 7.36057 18.2215 7.36057 17.6693Z" fill="#FF8787"/>
</svg>
